<?xml version="1.0" encoding="iso-8859-1"?>
<!-- Generator: Adobe Illustrator 21.0.0, SVG Export Plug-In . SVG Version: 6.00 Build 0)  -->
<svg xmlns="http://www.w3.org/2000/svg" xmlns:xlink="http://www.w3.org/1999/xlink" version="1.1" id="Capa_1" x="0px" y="0px" viewBox="0 0 512.001 512.001" style="enable-background:new 0 0 512.001 512.001;" xml:space="preserve" width="512" height="512">
<g>
	<g>
		<path style="fill:#D11372;" d="M136.703,243.008c-3.968-0.211-7.689-1.988-10.349-4.941c-6.925-7.69-29.101-35.833-23.714-75.104    c4.14-30.19,17.594-52.121,41.131-67.047c19.535-12.388,42.913-17.966,65.521-23.36c22.267-5.313,43.298-10.331,57.992-21.093    c17.428-12.764,32.998-28.087,46.277-45.543c2.902-3.816,7.504-6.03,12.246-5.915c4.793,0.098,9.25,2.481,11.993,6.413    c8.993,12.888,23.9,39.91,22.69,76.085c-0.98,29.352-12.012,51.739-21.092,65.352c-1.118,1.676-143.168,95.404-143.168,95.404    C184.667,249.667,136.703,243.008,136.703,243.008z"/>
	</g>
	<path style="fill:#B21061;" d="M337.801,6.417c-2.743-3.931-7.2-6.314-11.993-6.413c-4.742-0.115-9.344,2.099-12.246,5.915   c-13.279,17.456-28.85,32.779-46.277,45.543c-3.716,2.722-7.84,5.074-12.284,7.159V204.4   c39.233-25.989,83.775-55.611,84.399-56.546c9.08-13.613,20.111-36,21.092-65.352C361.702,46.327,346.794,19.305,337.801,6.417z"/>
	<g>
		<path style="fill:#F5A1CA;" d="M66.525,314.859L66.525,314.859c-5.653-13.326-17.415-41.054,7.27-72.249    c13.649-17.249,29.662-19.387,45.148-21.454c22.532-3.008,53.392-7.127,108.509-57.919c16.084-14.821,37.729-26.199,62.595-32.902    c23.796-6.416,48.785-7.856,70.354-4.059c28.725,5.057,50.439,19.231,61.145,39.91c18.072,34.911-3.344,89.762-14.533,104.719    C381.461,305.055,76.423,338.19,66.525,314.859z"/>
	</g>
	<path style="fill:#F17BB4;" d="M421.544,166.186c-10.705-20.679-32.42-34.853-61.145-39.91   c-21.568-3.798-46.558-2.357-70.354,4.059c-12.615,3.401-24.395,8.009-35.046,13.655v167.359   c72.361-9.903,140.509-25.07,152.011-40.444C418.201,255.949,439.617,201.097,421.544,166.186z"/>
	<g>
		<path style="fill:#D11372;" d="M169.622,373.463l-12.971-73.19c-0.957-5.404,1.112-10.899,5.397-14.328    c37.454-29.976,79.46-52.403,124.852-66.657c27.397-8.603,119.17-32.794,149.813,17.145c12.447,20.287,11.702,45.033,5.916,67.226    C435.501,331.001,211.001,394.001,169.622,373.463z"/>
	</g>
	<path style="fill:#B21061;" d="M436.713,236.433c-30.643-49.939-122.416-25.749-149.813-17.146   c-10.833,3.402-21.468,7.283-31.9,11.608v140.076c79.62-14.374,182.832-48.915,187.628-67.313   C448.415,281.465,449.16,256.719,436.713,236.433z"/>
	<g>
		<path style="fill:#BCE9F8;" d="M369.491,512.001H142.475c-6.078,0-11.556-3.668-13.87-9.289l-79.475-193    c-3.149-7.647,0.486-16.401,8.126-19.568l48.25-20c3.678-1.524,7.811-1.524,11.488,0l42.506,17.62l42.507-17.62    c3.679-1.524,7.812-1.524,11.488,0l42.505,17.619l42.506-17.619c3.678-1.524,7.811-1.524,11.488,0l42.506,17.619l42.506-17.619    c3.678-1.524,7.811-1.524,11.488,0l48.25,20c7.641,3.167,11.275,11.922,8.125,19.57l-79.51,192.999    C381.044,508.334,375.568,512.001,369.491,512.001z"/>
	</g>
	<path style="fill:#9CE0F6;" d="M454.745,290.145l-48.25-20c-3.678-1.524-7.811-1.524-11.488,0l-42.506,17.619l-42.506-17.619   c-3.678-1.524-7.811-1.524-11.488,0l-42.506,17.619l-1-0.415v224.652h114.49c6.077,0,11.554-3.667,13.869-9.287l79.51-192.999   C466.02,302.067,462.385,293.312,454.745,290.145z"/>
	<path style="fill:#00C7CE;" d="M278.992,512.001l25.258-243c-1.953,0-3.905,0.381-5.744,1.143l-42.506,17.619l-42.505-17.619   c-1.838-0.762-3.791-1.143-5.743-1.143l22.836,243H278.992z"/>
	<path style="fill:#00C7CE;" d="M57.256,290.145c-7.64,3.167-11.275,11.92-8.126,19.568l79.475,193   c2.314,5.621,7.792,9.289,13.87,9.289h41.302l-72.526-243c-1.953,0-3.905,0.381-5.744,1.143L57.256,290.145z"/>
	<path style="fill:#00B6BE;" d="M454.744,290.145c7.64,3.167,11.275,11.92,8.126,19.568l-79.475,193   c-2.314,5.621-7.792,9.289-13.87,9.289h-41.302l72.526-243c1.953,0,3.905,0.381,5.744,1.143L454.744,290.145z"/>
	<path style="fill:#00B6BE;" d="M298.506,270.144l-42.506,17.619l-1-0.415v224.652h23.992l25.258-243   C302.298,269.001,300.345,269.382,298.506,270.144z"/>
</g>















</svg>
